<?xml version="1.0" encoding="utf-8"?>
<!-- Generator: Adobe Illustrator 27.5.0, SVG Export Plug-In . SVG Version: 6.00 Build 0)  -->
<svg version="1.1" id="Layer_1" xmlns="http://www.w3.org/2000/svg" xmlns:xlink="http://www.w3.org/1999/xlink" x="0px" y="0px"
	 viewBox="0 0 24 24" style="enable-background:new 0 0 24 24;" xml:space="preserve">
<style type="text/css">
	.st0{fill:none;stroke:#01050F;stroke-width:2;stroke-linecap:round;stroke-linejoin:round;}
</style>
<path class="st0" d="M16,9c0.6,0.8,1,1.9,1,3s-0.4,2.2-1,3 M18,5.3c1.8,1.6,3,4,3,6.7c0,2.7-1.2,5.1-3,6.7 M4.6,9h0.9
	c0.6,0,0.8,0,1.1-0.1C6.8,8.9,7,8.8,7.2,8.6C7.4,8.5,7.6,8.3,8,7.9l2.6-3.2c0.4-0.5,0.7-0.8,0.8-0.8c0.2,0,0.3,0,0.4,0.2
	C12,4.2,12,4.5,12,5.2v13.6c0,0.7,0,1-0.1,1.2c-0.1,0.1-0.3,0.2-0.4,0.2c-0.2,0-0.4-0.3-0.8-0.8L8,16.2c-0.4-0.4-0.5-0.6-0.7-0.8
	c-0.2-0.1-0.4-0.2-0.6-0.3C6.3,15,6.1,15,5.5,15H4.6c-0.6,0-0.8,0-1.1-0.1c-0.2-0.1-0.3-0.2-0.4-0.4C3,14.2,3,14,3,13.4v-2.8
	C3,10,3,9.8,3.1,9.5c0.1-0.2,0.2-0.3,0.4-0.4C3.8,9,4,9,4.6,9z"/>
</svg>
