<svg width="24" height="24" viewBox="0 0 24 24" fill="none" xmlns="http://www.w3.org/2000/svg">
<path d="M5.5012 9.00179H4.6C4.03995 9.00179 3.75992 9.00179 3.54601 9.11079C3.35785 9.20666 3.20487 9.35964 3.10899 9.5478C3 9.76172 3 10.0417 3 10.6018V13.4018C3 13.9618 3 14.2419 3.10899 14.4558C3.20487 14.6439 3.35785 14.7969 3.54601 14.8928C3.75992 15.0018 4.03995 15.0018 4.6 15.0018H5.5012C6.05213 15.0018 6.32759 15.0018 6.58285 15.0705C6.80903 15.1313 7.02275 15.2314 7.21429 15.3662C7.43047 15.5184 7.60681 15.73 7.95951 16.1532L10.5854 19.3043C11.0211 19.8271 11.239 20.0885 11.4292 20.1157C11.594 20.1393 11.7597 20.0793 11.8712 19.9557C12 19.813 12 19.4727 12 18.7922V5.21143C12 4.53087 12 4.1906 11.8712 4.04788C11.7597 3.92429 11.594 3.86429 11.4292 3.88785C11.2389 3.91506 11.0211 4.17647 10.5854 4.69929L7.95951 7.85038C7.60681 8.27362 7.43047 8.48524 7.21429 8.63737C7.02275 8.77216 6.80903 8.87227 6.58285 8.93312C6.32759 9.00179 6.05213 9.00179 5.5012 9.00179Z" stroke="#B5B5B5" stroke-width="2" stroke-linecap="round" stroke-linejoin="round"/>
</svg>
