<?xml version="1.0" encoding="utf-8"?>
<!-- Generator: Adobe Illustrator 27.5.0, SVG Export Plug-In . SVG Version: 6.00 Build 0)  -->
<svg version="1.1" id="Layer_1" xmlns="http://www.w3.org/2000/svg" xmlns:xlink="http://www.w3.org/1999/xlink" x="0px" y="0px"
	 viewBox="0 0 24 24" style="enable-background:new 0 0 24 24;" xml:space="preserve">
<style type="text/css">
	.st0{fill:none;stroke:#01050F;stroke-width:2;stroke-linecap:round;stroke-linejoin:round;}
</style>
<path class="st0" d="M5.5,9H4.6C4,9,3.8,9,3.5,9.1C3.4,9.2,3.2,9.4,3.1,9.5C3,9.8,3,10,3,10.6v2.8c0,0.6,0,0.8,0.1,1.1
	c0.1,0.2,0.2,0.3,0.4,0.4C3.8,15,4,15,4.6,15h0.9c0.6,0,0.8,0,1.1,0.1c0.2,0.1,0.4,0.2,0.6,0.3c0.2,0.2,0.4,0.4,0.7,0.8l2.6,3.2
	c0.4,0.5,0.7,0.8,0.8,0.8c0.2,0,0.3,0,0.4-0.2c0.1-0.1,0.1-0.5,0.1-1.2V5.2c0-0.7,0-1-0.1-1.2c-0.1-0.1-0.3-0.2-0.4-0.2
	c-0.2,0-0.4,0.3-0.8,0.8L8,7.9C7.6,8.3,7.4,8.5,7.2,8.6C7,8.8,6.8,8.9,6.6,8.9C6.3,9,6.1,9,5.5,9z"/>
</svg>
